<?xml version="1.0" encoding="UTF-8"?>
<svg id="Livello_2" data-name="Livello 2" xmlns="http://www.w3.org/2000/svg" viewBox="0 0 392.82 173">
  <defs>
    <style>
      .cls-1 {
        fill: #1d1d1b;
      }
    </style>
  </defs>
  <g id="Livello_1-2" data-name="Livello 1">
    <g>
      <g>
        <path d="M92.17,33.63c-8.14,18.78,11.17,56.27,22.15,72.4,10.73,14.64,23.69,28.59,40.93,35.65l-27.31,17.48c-.99,4.08-2.66,7.65-5.79,10.49-7.22,5.88-17.42,3.01-24.97-.92-6.56-3.54-12.19-7.86-17.65-12.96-6.46-6.01-11.94-12.67-17.26-19.97l32.9-23.96c-14.5-22.02-27.44-48.98-30.84-75.15-1.36-10.91-.3-23.94,8.36-31.52,4.93-4.32,10.95-6.28,17.43-4.53,12.05,3.25,24.55,12.17,33.86,20.54,12.68,11.4,23.52,24.16,33.22,38.22,8.19,11.87,14.89,24.29,19.23,38.02,2.94,9.3,5.51,22.22,1.54,31.32-2.01,4.62-6.48,7.62-11.71,7.42-5.55-.22-10.59-2.32-15.37-5.27-19.51-12.06-35.85-34.89-45.42-55.5-5.87-12.64-16-41.18-2.07-51.45-5.47.75-9.13,4.88-11.21,9.68ZM111.89,37.98c-3.37,1.9.69,13.9,9.23,19.29,1.15.73,2.82.6,3.51-.05,4.45-4.17-7.28-22.32-12.74-19.24ZM137.87,54c-.6.46-1.17,1.77-1.01,2.94,1.32,9.82,10.47,18.51,13.6,16.3,5.39-3.83-7.42-23.16-12.59-19.23ZM120.59,73.05c-.95-.48-2.31-.28-2.94.26-4.56,3.92,7.06,21.77,12.41,19.46,4.12-1.77-.93-15.39-9.47-19.73ZM135.21,74.35c-3.15,1.38,3.83,13.04,7.09,10.92,2.6-1.69-3.37-12.55-7.09-10.92ZM155.23,84.53c-3.35,2.27,1.23,14.37,9.3,19.09,1.11.65,2.54.79,3.35.15,4.9-3.88-7.29-22.87-12.65-19.24ZM143.04,99.57c-4.83,4.01,7.5,22.47,12.62,19.2s-7.65-23.34-12.62-19.2Z"/>
        <polygon points="82.64 109.55 74.23 115.59 68.61 106.21 76.78 100.26 82.64 109.55"/>
        <path d="M64.46,97.96c-2.07-3.16-3.09-6.28-4.69-9.6,2.58-2.29,5.11-3.77,8.03-5.76l4.75,9.52-8.08,5.85Z"/>
        <path d="M27.84,149.27c-2.53-2.85-4.01-5.72-6.06-8.74l7.18-5.82,5.93,8.66-7.05,5.9Z"/>
        <path d="M56.75,80.58c-1.74-2.91-2.35-5.94-3.75-9.19l7.97-5.67,3.66,9.23-7.88,5.63Z"/>
        <path d="M17.44,132.84c-2.24-2.86-3.19-5.82-4.84-8.84l7.18-5.76,4.77,9.04-7.1,5.56Z"/>
        <path d="M55.32,41.84c-2.64,2.02-4.99,3.76-8.21,5.74-.46-2.93-1.61-6.44-.93-9.52,2.14-2.48,5.72-4.22,8.51-6.32.42,3.71-.06,6.7.63,10.11Z"/>
        <polygon points="58.67 57.6 50.75 63.17 48.26 53.94 56.09 48.26 58.67 57.6"/>
        <path d="M9.43,116.82c-1.57-2.97-2.37-5.76-3.51-8.81l6.85-5.77,3.79,8.76-7.13,5.82Z"/>
        <path d="M3.61,99.85c-1.28-2.94-1.56-5.94-2.29-9.04,2.22-1.97,4.16-3.62,6.81-5.51l2.35,9.11-6.87,5.44Z"/>
        <path d="M7.55,78.77l-6.91,5.48c-.59-3.29-.96-6.9-.23-10.12,1.63-2.02,4.3-3.53,6.38-5.27.4,3.55-.22,6.37.76,9.91Z"/>
        <path d="M59.23,14.97c-4.92,9.83-1.03,6.99-11.47,13.39,2.12-5.83,6.48-9.86,11.47-13.39Z"/>
        <path d="M11.22,51.73c-3.9,8.52-.8,6.99-8.98,12.31,1.46-5.26,4.42-9.86,8.98-12.31Z"/>
      </g>
      <g>
        <path class="cls-1" d="M200.17,35.37v-6.34h28.08v6.34h-10.27v27.94h-7.54v-27.94h-10.27Z"/>
        <path class="cls-1" d="M238.28,29.03v12.91h.14c.86-1.44,1.97-2.49,3.31-3.14,1.34-.66,2.66-.98,3.94-.98,1.82,0,3.32.25,4.49.74,1.17.5,2.09,1.18,2.76,2.06.67.88,1.14,1.95,1.42,3.22.27,1.26.41,2.66.41,4.2v15.26h-6.82v-14.02c0-2.05-.32-3.58-.96-4.58-.64-1.01-1.78-1.51-3.41-1.51-1.86,0-3.2.55-4.03,1.66-.83,1.1-1.25,2.92-1.25,5.45v13.01h-6.82V29.03h6.82Z"/>
        <path class="cls-1" d="M267.22,57.35c1.02.99,2.5,1.49,4.42,1.49,1.38,0,2.56-.34,3.55-1.03.99-.69,1.6-1.42,1.82-2.18h6c-.96,2.98-2.43,5.1-4.42,6.38-1.98,1.28-4.38,1.92-7.2,1.92-1.95,0-3.71-.31-5.28-.94-1.57-.62-2.9-1.51-3.98-2.66s-1.93-2.53-2.52-4.13c-.59-1.6-.89-3.36-.89-5.28s.3-3.58.91-5.18c.61-1.6,1.47-2.98,2.59-4.15,1.12-1.17,2.46-2.09,4.01-2.76,1.55-.67,3.27-1.01,5.16-1.01,2.11,0,3.95.41,5.52,1.22,1.57.82,2.86,1.91,3.86,3.29,1.01,1.38,1.74,2.94,2.18,4.7.45,1.76.61,3.6.48,5.52h-17.9c.1,2.21.66,3.81,1.68,4.8ZM274.92,44.29c-.82-.9-2.06-1.34-3.72-1.34-1.09,0-1.99.18-2.71.55-.72.37-1.3.82-1.73,1.37-.43.54-.74,1.12-.91,1.73-.18.61-.28,1.15-.31,1.63h11.09c-.32-1.73-.89-3.04-1.7-3.94Z"/>
        <path class="cls-1" d="M325.64,29.03v6.34h-16.56v7.92h14.35v5.86h-14.35v14.16h-7.54V29.03h24.1Z"/>
        <path class="cls-1" d="M329.48,34.65v-5.62h6.82v5.62h-6.82ZM336.29,38.49v24.82h-6.82v-24.82h6.82Z"/>
        <path class="cls-1" d="M348.67,29.03v34.27h-6.82V29.03h6.82Z"/>
        <path class="cls-1" d="M360.68,38.49v3.36h.1c.9-1.28,1.98-2.27,3.24-2.98,1.26-.7,2.71-1.06,4.34-1.06s3,.3,4.3.91c1.3.61,2.28,1.68,2.95,3.22.74-1.09,1.74-2.05,3-2.88,1.26-.83,2.76-1.25,4.49-1.25,1.31,0,2.53.16,3.65.48,1.12.32,2.08.83,2.88,1.54.8.7,1.42,1.62,1.87,2.76.45,1.14.67,2.5.67,4.1v16.61h-6.82v-14.06c0-.83-.03-1.62-.1-2.35-.06-.74-.24-1.38-.53-1.92-.29-.54-.71-.98-1.27-1.3-.56-.32-1.32-.48-2.28-.48s-1.74.18-2.33.55c-.59.37-1.06.85-1.39,1.44-.34.59-.56,1.26-.67,2.02-.11.75-.17,1.51-.17,2.28v13.82h-6.82v-13.92c0-.74-.02-1.46-.05-2.18-.03-.72-.17-1.38-.41-1.99-.24-.61-.64-1.1-1.2-1.46-.56-.37-1.38-.55-2.47-.55-.32,0-.74.07-1.27.22-.53.14-1.04.42-1.54.82-.5.4-.92.98-1.27,1.73-.35.75-.53,1.74-.53,2.95v14.4h-6.82v-24.82h6.43Z"/>
      </g>
      <g>
        <path class="cls-1" d="M236.4,74.53c3.09,0,5.91.27,8.46.82,2.55.55,4.73,1.44,6.55,2.68,1.82,1.24,3.23,2.9,4.23,4.96,1,2.06,1.5,4.61,1.5,7.64,0,3.28-.74,6.01-2.23,8.19-1.49,2.18-3.68,3.97-6.6,5.37,4,1.15,6.99,3.17,8.96,6.05,1.97,2.88,2.96,6.36,2.96,10.42,0,3.28-.64,6.11-1.91,8.51-1.27,2.4-2.99,4.35-5.14,5.87-2.15,1.52-4.61,2.64-7.37,3.37-2.76.73-5.6,1.09-8.51,1.09h-31.49v-64.97h30.58ZM234.58,100.83c2.55,0,4.64-.61,6.28-1.82,1.64-1.21,2.46-3.18,2.46-5.92,0-1.52-.27-2.76-.82-3.73-.55-.97-1.27-1.73-2.18-2.28-.91-.55-1.96-.92-3.14-1.14-1.18-.21-2.41-.32-3.69-.32h-13.38v15.2h14.47ZM235.4,128.4c1.4,0,2.73-.14,4-.41,1.27-.27,2.4-.73,3.37-1.37.97-.64,1.74-1.5,2.32-2.59.58-1.09.86-2.49.86-4.19,0-3.34-.94-5.72-2.82-7.14-1.88-1.42-4.37-2.14-7.46-2.14h-15.56v17.84h15.29Z"/>
        <path class="cls-1" d="M281.81,74.53v64.97h-12.92v-64.97h12.92Z"/>
        <path class="cls-1" d="M292.27,105.78c1.15-3.06,2.79-5.67,4.91-7.83,2.12-2.15,4.67-3.82,7.64-5.01,2.97-1.18,6.31-1.77,10.01-1.77s7.05.59,10.06,1.77c3,1.18,5.57,2.85,7.69,5.01,2.12,2.15,3.76,4.76,4.91,7.83,1.15,3.06,1.73,6.48,1.73,10.24s-.58,7.16-1.73,10.19c-1.15,3.03-2.79,5.63-4.91,7.78-2.12,2.15-4.69,3.81-7.69,4.96s-6.36,1.73-10.06,1.73-7.04-.58-10.01-1.73c-2.97-1.15-5.52-2.81-7.64-4.96-2.12-2.15-3.76-4.75-4.91-7.78-1.15-3.03-1.73-6.43-1.73-10.19s.58-7.17,1.73-10.24ZM304.01,121.53c.36,1.79.99,3.4,1.87,4.82.88,1.43,2.05,2.56,3.5,3.41,1.46.85,3.28,1.27,5.46,1.27s4.02-.42,5.51-1.27c1.49-.85,2.67-1.99,3.55-3.41.88-1.42,1.5-3.03,1.87-4.82.36-1.79.55-3.62.55-5.5s-.18-3.73-.55-5.55c-.36-1.82-.99-3.43-1.87-4.82-.88-1.4-2.06-2.53-3.55-3.41-1.49-.88-3.32-1.32-5.51-1.32s-4,.44-5.46,1.32c-1.46.88-2.62,2.02-3.5,3.41-.88,1.4-1.5,3-1.87,4.82-.36,1.82-.55,3.67-.55,5.55s.18,3.72.55,5.5Z"/>
        <path class="cls-1" d="M392.05,142.96c-.52,2.43-1.62,4.69-3.32,6.78-1.7,2.09-4.16,3.87-7.37,5.32-3.22,1.46-7.52,2.18-12.92,2.18-2.31,0-4.66-.29-7.05-.86-2.4-.58-4.58-1.47-6.55-2.68-1.97-1.21-3.61-2.78-4.91-4.69-1.3-1.91-2.05-4.2-2.23-6.87h12.83c.61,2.43,1.79,4.11,3.55,5.05,1.76.94,3.79,1.41,6.1,1.41,3.64,0,6.29-1.09,7.96-3.28,1.67-2.18,2.47-4.95,2.41-8.28v-6.19h-.18c-1.4,2.49-3.38,4.32-5.96,5.5-2.58,1.18-5.29,1.77-8.14,1.77-3.52,0-6.55-.62-9.1-1.87-2.55-1.24-4.64-2.94-6.28-5.1-1.64-2.15-2.84-4.67-3.59-7.55-.76-2.88-1.14-5.93-1.14-9.15,0-3.03.44-5.96,1.32-8.78.88-2.82,2.17-5.31,3.87-7.46,1.7-2.15,3.81-3.87,6.33-5.14,2.52-1.27,5.41-1.91,8.69-1.91,3.09,0,5.81.58,8.14,1.73,2.33,1.15,4.29,3.09,5.87,5.82h.18v-6.28h12.28v44.04c0,1.88-.26,4.03-.77,6.46ZM374.35,127.31c1.39-.73,2.55-1.7,3.46-2.91.91-1.21,1.59-2.59,2.05-4.14.46-1.55.68-3.17.68-4.87,0-1.94-.18-3.78-.55-5.5-.36-1.73-.97-3.26-1.82-4.6-.85-1.33-1.97-2.4-3.37-3.19-1.4-.79-3.16-1.18-5.28-1.18-1.82,0-3.38.36-4.69,1.09-1.3.73-2.4,1.71-3.28,2.96-.88,1.24-1.52,2.67-1.91,4.28-.4,1.61-.59,3.29-.59,5.05s.17,3.38.5,5.05c.33,1.67.91,3.17,1.73,4.5.82,1.34,1.9,2.43,3.23,3.28,1.33.85,3,1.27,5,1.27,1.82,0,3.43-.36,4.82-1.09Z"/>
      </g>
    </g>
  </g>
</svg>